<svg xmlns="http://www.w3.org/2000/svg" viewBox="0 0 28 32">
  <g fill="#1977D6" fill-rule="nonzero">
    <path d="M27.3 5.4c0-.6-.4-1-1-1L25 4.2s-2.6 0-5.2-1.1C17.1 2 15.4.8 15.3.8l-.7-.6c-.4-.3-1-.3-1.3 0l-.8.5S10.7 2.1 8 3.2c-2.6 1-5.1 1-5.2 1H1.5c-.6.1-1 .6-1 1.2v12.4c0 3.2 1.7 6.6 4.8 9.6 2.9 2.7 6.1 4.4 8.6 4.4 2.4 0 5.7-1.7 8.5-4.4 3.2-3 5-6.4 5-9.6V5.4zM21 25.8c-2.3 2.2-5.2 3.8-7 3.8-1.8 0-4.7-1.5-7-3.8-2.7-2.5-4.2-5.5-4.2-8V6.6h.1c.3 0 3.1 0 6-1.3 3-1.2 5-2.6 5-2.7h.1c.3.2 2.2 1.5 5.1 2.7 3 1.2 5.7 1.3 6 1.3h.1v11.3c0 2.5-1.5 5.4-4.2 8z"/>
    <path d="M18.8 11l-6.4 6.3-2.7-2.7c-.5-.5-1.4-.5-2 0-.5.6-.5 1.5 0 2l3.7 3.7c.3.3.6.4 1 .4s.7-.1 1-.4l7.4-7.4c.5-.5.5-1.4 0-2-.6-.5-1.5-.5-2 0z"/>
  </g>
</svg>
